<svg viewBox="0 0 199 43" xmlns="http://www.w3.org/2000/svg" data-logo="logo">
        <g transform="translate(0, 1) rotate(0)" id="logogram" style="opacity: 1;"><path fill="#4F9E91" d="M24.4118 4.63289C25.8035 3.24123 28.06 3.24123 29.4517 4.63289C30.8435 6.02466 30.8435 8.28112 29.4517 9.67289L20.9667 18.158C18.5305 14.8931 18.7952 10.2496 21.7606 7.28418L24.4118 4.63289Z" clip-rule="evenodd" fill-rule="evenodd"></path><path fill="#EBE1C5" d="M36.5418 23.7767C37.9338 25.1683 37.9338 27.4249 36.5418 28.8165C35.1508 30.2083 32.894 30.2083 31.5022 28.8165L23.0171 20.3316C26.282 17.8954 30.9255 18.16 33.8909 21.1254L36.5418 23.7767Z" clip-rule="evenodd" fill-rule="evenodd"></path><path fill="#EBCC6E" d="M17.3983 35.9069C16.0066 37.2987 13.7501 37.2987 12.3584 35.9069C10.9666 34.5151 10.9666 32.2587 12.3584 30.8669L20.8434 22.382C23.2795 25.6469 23.015 30.2903 20.0495 33.2556L17.3983 35.9069Z" clip-rule="evenodd" fill-rule="evenodd"></path><path fill="#ED834E" d="M5.26813 16.7632C3.87636 15.3714 3.87636 13.115 5.26813 11.7232C6.6599 10.3315 8.91633 10.3315 10.3081 11.7232L18.7932 20.2083C15.5283 22.6445 10.8847 22.3798 7.91939 19.4145L5.26813 16.7632Z" clip-rule="evenodd" fill-rule="evenodd"></path><path fill="#ED834E" d="M22.5157 34.8678C24.5679 32.5861 25.5217 29.6665 25.377 26.7919L29.452 30.8669C29.4621 30.877 29.4723 30.8871 29.4826 30.8973V33.8066C29.4826 35.7748 27.887 37.3703 25.9188 37.3703C24.3201 37.3703 22.9674 36.3177 22.5157 34.8678Z" clip-rule="evenodd" fill-rule="evenodd"></path><path fill="#4F9E91" d="M6.30718 21.8804C8.58878 23.9327 11.5084 24.8865 14.383 24.7418L10.3081 28.8168C10.2979 28.8269 10.2877 28.8371 10.2777 28.8473H7.36841C5.4002 28.8474 3.80465 27.2517 3.80465 25.2835C3.80465 23.6849 4.85725 22.3321 6.30718 21.8804Z" clip-rule="evenodd" fill-rule="evenodd"></path><path fill="#EBCC6E" d="M35.5028 18.6596C33.2214 16.6074 30.3017 15.6536 27.4272 15.7982L31.5021 11.7233C31.5123 11.7131 31.5223 11.7029 31.5325 11.6927H34.4418C36.4104 11.6927 38.0059 13.2883 38.0059 15.2565C38.0059 16.8552 36.9529 18.208 35.5028 18.6596Z" clip-rule="evenodd" fill-rule="evenodd"></path><path fill="#EBE1C5" d="M19.2946 5.67207C17.2423 7.95369 16.2886 10.8733 16.4332 13.748L12.3583 9.67299C12.3481 9.66286 12.3379 9.65273 12.3277 9.6426V6.73329C12.3277 4.76508 13.9233 3.16943 15.8915 3.16943C17.4901 3.16943 18.8429 4.22213 19.2946 5.67207Z" clip-rule="evenodd" fill-rule="evenodd"></path><path fill="#3D3A2C" d="M15.8917 0.269989C12.3221 0.269989 9.42837 3.16374 9.42837 6.73331V7.99038C7.28085 7.42929 4.90086 7.99008 3.21796 9.67298C0.69387 12.1971 0.69387 16.2894 3.21796 18.8135L4.1068 19.7024C2.19154 20.8242 0.905273 22.9036 0.905273 25.2835C0.905273 28.853 3.79902 31.7468 7.3686 31.7468H8.62558C8.06448 33.8943 8.62528 36.2743 10.3082 37.9571C12.8323 40.4812 16.9246 40.4812 19.4487 37.9571L22.0999 35.3059C24.4387 32.9672 25.531 29.8539 25.3768 26.7918L29.4519 30.8668C31.976 33.3909 36.0685 33.3909 38.5927 30.8668C41.1169 28.3427 41.1169 24.2503 38.5927 21.7263L37.7042 20.8376C39.6186 19.7158 40.9053 17.6364 40.9053 15.2565C40.9053 11.6869 38.011 8.79317 34.4419 8.79317H33.1848C33.746 6.64556 33.1851 4.26558 31.5022 2.58268C28.9782 0.0585865 24.8858 0.0585865 22.3617 2.58268L19.7105 5.23394C17.3717 7.57269 16.2794 10.6859 16.4335 13.748L12.3585 9.67298C12.3483 9.66285 12.3382 9.65272 12.3279 9.64259V6.73331C12.3279 4.7651 13.9235 3.16955 15.8917 3.16955C17.4903 3.16955 18.8431 4.22215 19.2948 5.67209C19.4287 5.52326 19.5672 5.37715 19.7104 5.23394L21.4728 3.47151C20.351 1.55626 18.2716 0.269989 15.8917 0.269989ZM31.5326 11.6927C31.5224 11.7029 31.5124 11.7131 31.5022 11.7232L27.4273 15.7981C30.302 15.6535 33.2215 16.6072 35.5029 18.6596C36.953 18.2079 38.006 16.8551 38.006 15.2565C38.006 13.2883 36.4105 11.6927 34.4419 11.6927H31.5326ZM10.2777 28.8472C10.2878 28.837 10.2979 28.8268 10.3082 28.8166L14.3831 24.7416C11.5085 24.8863 8.58897 23.9325 6.30737 21.8804C4.85744 22.3321 3.80474 23.6848 3.80474 25.2835C3.80474 27.2517 5.40039 28.8472 7.3686 28.8472H10.2777ZM6.19626 21.7791C6.08564 21.6769 5.97663 21.5721 5.86922 21.4647V21.4648C5.97663 21.5722 6.08564 21.6769 6.19626 21.7791ZM25.9188 40.27C23.5388 40.27 21.4594 38.9836 20.3376 37.0684L22.0999 35.3059C22.2432 35.1627 22.3817 35.0166 22.5156 34.8678C22.9673 36.3177 24.32 37.3704 25.9188 37.3704C27.887 37.3704 29.4825 35.7749 29.4825 33.8067V30.8974C30.3177 31.7216 31.3216 32.2724 32.3821 32.5495V33.8067C32.3821 37.3762 29.4883 40.27 25.9188 40.27ZM29.4519 4.63292C28.0602 3.24126 25.8037 3.24126 24.412 4.63292L21.7607 7.28417C18.7954 10.2496 18.5307 14.8931 20.9669 18.158L29.4519 9.67288C30.8437 8.28111 30.8437 6.02469 29.4519 4.63292ZM36.5419 28.8165C37.9338 27.4248 37.9338 25.1683 36.5419 23.7766L33.8909 21.1253C30.9255 18.16 26.282 17.8953 23.0171 20.3315L31.5022 28.8165C32.8939 30.2083 35.1509 30.2083 36.5419 28.8165ZM17.3984 35.9069C16.0066 37.2986 13.7502 37.2986 12.3584 35.9069C10.9668 34.5151 10.9668 32.2587 12.3584 30.8669L20.8435 22.3818C23.2796 25.6467 23.015 30.2902 20.0496 33.2556L17.3984 35.9069ZM5.26821 11.7232C3.87654 13.115 3.87654 15.3714 5.26821 16.7632L7.91947 19.4144C10.8849 22.3798 15.5284 22.6445 18.7933 20.2083L10.3082 11.7232C8.91641 10.3316 6.65998 10.3316 5.26821 11.7232Z" clip-rule="evenodd" fill-rule="evenodd"></path></g>
        <g transform="translate(47, 8.5)" id="logotype" style="opacity: 1;"><path d="M12.60 26L6.84 26L15.54 0.54L22.37 0.54L31.29 26L25.50 26L21.42 13.71Q20.68 11.34 19.92 8.51Q19.16 5.68 18.32 2.33L18.32 2.33L19.45 2.33Q18.65 5.70 17.94 8.54Q17.23 11.39 16.53 13.71L16.53 13.71L12.60 26ZM25.86 20.09L12.27 20.09L12.27 16.00L25.86 16.00L25.86 20.09ZM32.16 0.54L37.37 0.54L37.37 26L32.16 26L32.16 0.54ZM61.93 26L45.73 26L45.73 0.54L50.94 0.54L50.94 21.68L61.93 21.68L61.93 26ZM74.42 26.34L74.42 26.34Q71.05 26.34 68.36 24.80Q65.67 23.27 64.11 20.34Q62.54 17.42 62.54 13.29L62.54 13.29Q62.54 9.13 64.11 6.20Q65.67 3.27 68.36 1.73Q71.05 0.19 74.42 0.19L74.42 0.19Q77.80 0.19 80.49 1.73Q83.17 3.27 84.73 6.20Q86.30 9.13 86.30 13.29L86.30 13.29Q86.30 17.42 84.73 20.34Q83.17 23.27 80.49 24.80Q77.80 26.34 74.42 26.34ZM74.42 21.71L74.42 21.71Q76.40 21.71 77.88 20.74Q79.36 19.78 80.18 17.89Q81.00 16.00 81.00 13.29L81.00 13.29Q81.00 10.53 80.18 8.65Q79.36 6.76 77.88 5.79Q76.40 4.83 74.42 4.83L74.42 4.83Q72.45 4.83 70.97 5.80Q69.48 6.77 68.66 8.66Q67.84 10.55 67.84 13.29L67.84 13.29Q67.84 16.00 68.66 17.88Q69.48 19.76 70.97 20.74Q72.45 21.71 74.42 21.71ZM102.21 26L95.39 26L86.47 0.54L92.26 0.54L96.33 12.82Q97.06 15.15 97.81 17.94Q98.57 20.74 99.40 24.05L99.40 24.05L98.27 24.05Q99.10 20.70 99.81 17.93Q100.53 15.15 101.23 12.82L101.23 12.82L105.16 0.54L110.92 0.54L102.21 26ZM128.86 26L111.79 26L111.79 0.54L128.83 0.54L128.83 4.86L117.00 4.86L117.00 11.01L127.92 11.01L127.92 15.27L117.00 15.27L117.00 21.68L128.86 21.68L128.86 26ZM135.99 26L130.78 26L130.78 0.54L140.70 0.54Q143.61 0.54 145.64 1.56Q147.68 2.59 148.75 4.45Q149.81 6.31 149.81 8.82L149.81 8.82Q149.81 11.34 148.73 13.16Q147.64 14.98 145.58 15.94Q143.52 16.91 140.59 16.91L140.59 16.91L133.85 16.91L133.85 12.69L139.75 12.69Q141.35 12.69 142.38 12.25Q143.41 11.82 143.92 10.95Q144.43 10.09 144.43 8.82L144.43 8.82Q144.43 7.53 143.92 6.65Q143.41 5.77 142.37 5.30Q141.34 4.84 139.73 4.84L139.73 4.84L135.99 4.84L135.99 26ZM150.72 26L144.94 26L138.74 14.41L144.40 14.41L150.72 26Z" fill="#210303"></path></g>
        
      </svg>